<svg xmlns="http://www.w3.org/2000/svg" data-name="50 Smart Robot, Bionic Man, Humanoid Robot," viewBox="0 0 48 48" id="smart-robot"><path d="M12,29v4a1,1,0,0,0,1,1H35a1,1,0,0,0,1-1V29a5,5,0,0,0,0-10V16a4,4,0,0,0-4-4H25V7.82a3,3,0,1,0-2,0V12H16a4,4,0,0,0-4,4v3a5,5,0,0,0,0,10ZM24,4a1,1,0,1,1-1,1A1,1,0,0,1,24,4Zm1,24v4H23V28Zm-4,4H19V28h2Zm6,0V28h2v4Zm12-8a3,3,0,0,1-3,3V21A3,3,0,0,1,39,24ZM14,16a2,2,0,0,1,2-2H32a2,2,0,0,1,2,2V32H31V27a1,1,0,0,0-1-1H18a1,1,0,0,0-1,1v5H14V16Zm-2,5v6a3,3,0,0,1,0-6Zm7,2a3,3,0,1,0-3-3A3,3,0,0,0,19,23Zm0-4a1,1,0,1,1-1,1A1,1,0,0,1,19,19Zm10,4a3,3,0,1,0-3-3A3,3,0,0,0,29,23Zm0-4a1,1,0,1,1-1,1A1,1,0,0,1,29,19Zm6,17H13a5,5,0,0,0-5,5v4a1,1,0,0,0,1,1H39a1,1,0,0,0,1-1V41A5,5,0,0,0,35,36Zm3,8H10V41a3,3,0,0,1,3-3H35a3,3,0,0,1,3,3Z"></path></svg>